<?xml version="1.0" encoding="UTF-8" standalone="no"?>
<svg width="166px" height="58px" viewBox="0 0 166 58" version="1.1" xmlns="http://www.w3.org/2000/svg" xmlns:xlink="http://www.w3.org/1999/xlink">
    <!-- Generator: Sketch 3.8.3 (29802) - http://www.bohemiancoding.com/sketch -->
    <title>Group</title>
    <desc>Created with Sketch.</desc>
    <defs></defs>
    <g id="Page-1" stroke="none" stroke-width="1" fill="none" fill-rule="evenodd">
        <g id="Group" transform="translate(-1.000000, -6.000000)" fill="#2E86C1">
            <text id="Quadrupal" font-family="Monaco" font-size="30" font-weight="normal" letter-spacing="1">
                <tspan x="0" y="30">Quadrupa</tspan>
                <tspan x="152.023438" y="30">l</tspan>
            </text>
            <path d="M90.1727775,41.9696218 C91.9250541,41.9696218 93.3455549,40.703935 93.3455549,39.1426311 C93.3455549,38.4522852 92.7252599,37.1715085 92.033209,35.957397 C91.1601001,34.4256431 90.1727775,33 90.1727775,33 C90.1727775,33 87,37.5813273 87,39.1426311 C87,40.703935 88.4205009,41.9696218 90.1727775,41.9696218 Z" id="Drop-4"></path>
            <path d="M90.1727775,52.9696218 C91.9250541,52.9696218 93.3455549,51.703935 93.3455549,50.1426311 C93.3455549,49.4522852 92.7252599,48.1715085 92.033209,46.957397 C91.1601001,45.4256431 90.1727775,44 90.1727775,44 C90.1727775,44 87,48.5813273 87,50.1426311 C87,51.703935 88.4205009,52.9696218 90.1727775,52.9696218 Z" id="Drop-4"></path>
            <path d="M90.1727775,63.9696218 C91.9250541,63.9696218 93.3455549,62.703935 93.3455549,61.1426311 C93.3455549,60.4522852 92.7252599,59.1715085 92.033209,57.957397 C91.1601001,56.4256431 90.1727775,55 90.1727775,55 C90.1727775,55 87,59.5813273 87,61.1426311 C87,62.703935 88.4205009,63.9696218 90.1727775,63.9696218 Z" id="Drop-4"></path>
            <path d="M90.1727775,30.9696218 C91.9250541,30.9696218 93.3455549,29.703935 93.3455549,28.1426311 C93.3455549,27.4522852 92.7252599,26.1715085 92.033209,24.957397 C91.1601001,23.4256431 90.1727775,22 90.1727775,22 C90.1727775,22 87,26.5813273 87,28.1426311 C87,29.703935 88.4205009,30.9696218 90.1727775,30.9696218 Z" id="Drop-4"></path>
        </g>
    </g>
</svg>