<?xml version="1.0" encoding="UTF-8" standalone="no"?>
<svg width="222px" height="190px" viewBox="0 0 222 190" version="1.1" xmlns="http://www.w3.org/2000/svg" xmlns:xlink="http://www.w3.org/1999/xlink">
    <!-- Generator: Sketch 3.8.3 (29802) - http://www.bohemiancoding.com/sketch -->
    <title>Group</title>
    <desc>Created with Sketch.</desc>
    <defs>
        <rect id="path-1" x="50" y="69" width="115" height="47"></rect>
        <mask id="mask-2" maskContentUnits="userSpaceOnUse" maskUnits="objectBoundingBox" x="0" y="0" width="115" height="47" fill="white">
            <use xlink:href="#path-1"></use>
        </mask>
    </defs>
    <g id="Page-1" stroke="none" stroke-width="1" fill="none" fill-rule="evenodd">
        <g id="Group" transform="translate(3.000000, 3.000000)">
            <path d="M135,13.0900417 C157.175016,13.0900417 175.236328,30.4498915 175.5,51.8746082 C175.394531,52.6673739 175.315219,53.4597305 175.289063,54.2778581 L174.946078,63.8908575 L184.332797,67.061102 C195.1965,70.7295862 202.5,80.6113405 202.5,91.6302922 C202.5,106.075562 190.39725,117.810376 175.5,117.810376 L40.5,117.810376 C25.6158281,117.810376 13.5,106.075153 13.5,91.6302922 C13.5,77.338421 25.3918125,65.6801026 40.078125,65.4502087 C40.7109375,65.5397937 41.3703281,65.6162886 42.0292969,65.6547406 L52.2863438,66.3067883 L55.6613438,56.9110018 C59.4582188,46.3522469 69.6359531,39.2701252 81,39.2701252 C82.3183594,39.2701252 83.7687656,39.4235242 85.7199375,39.756093 L95.1724688,41.4050292 L99.8789063,33.2875671 C107.103516,20.8368921 120.550781,13.0900417 135,13.0900417 L135,13.0900417 Z M88.1060625,26.8705832 C85.7988281,26.4742004 83.4388594,26.1800835 81,26.1800835 C63.3074062,26.1800835 48.4232344,37.2505772 42.9127031,52.5904699 C42.1086094,52.5393369 41.3306719,52.360167 40.5,52.360167 C18.140625,52.360167 0,69.9499106 0,91.6302922 C0,113.310674 18.140625,130.900417 40.5,130.900417 L167.363281,130.900417 L175.5,130.900417 C197.859375,130.900417 216,113.310674 216,91.6302922 C216,74.4749744 204.582797,60.0301133 188.762484,54.6865128 C188.789062,53.8941562 189,53.1529326 189,52.360167 C189,23.4446738 164.8215,0 135,0 C114.776156,0 97.3607344,10.9170948 88.1060625,26.8705832 Z" id="Shape" stroke="#FFFFFF" stroke-width="5" fill="#4A4A4A"></path>
            <ellipse id="Oval-13" stroke-opacity="0" stroke="#979797" fill="#FFFFFF" cx="45.5" cy="90.5" rx="26.5" ry="25.5"></ellipse>
            <ellipse id="Oval-13" stroke-opacity="0" stroke="#979797" fill="#FFFFFF" cx="137" cy="48.6792453" rx="35" ry="33.6792453"></ellipse>
            <ellipse id="Oval-13" stroke-opacity="0" stroke="#979797" fill="#FFFFFF" cx="173.5" cy="93.0815805" rx="26.5" ry="23.9184195"></ellipse>
            <use id="Rectangle-7" stroke-opacity="0" stroke="#979797" mask="url(#mask-2)" stroke-width="2" fill="#FFFFFF" xlink:href="#path-1"></use>
            <ellipse id="Oval-13" stroke-opacity="0" stroke="#979797" fill="#FFFFFF" cx="83" cy="71" rx="29" ry="28"></ellipse>
            <text id="Quadrupal" font-family="ArialRoundedMTBold, Arial Rounded MT Bold" font-size="32" font-weight="normal" fill="#4A4A4A">
                <tspan x="29" y="103">Quadrupal</tspan>
            </text>
            <path d="M49.1767519,183.836839 C55.4136005,183.836839 60.4695652,179.062185 60.4695652,173.17235 C60.4695652,167.282516 49.1767519,150 49.1767519,150 C49.1767519,150 37.8839387,167.282516 37.8839387,173.17235 C37.8839387,179.062185 42.9399034,183.836839 49.1767519,183.836839 Z" id="Drop-1" stroke="#4A4A4A" stroke-width="6" fill="#FFFFFF"></path>
            <path d="M89.1767519,183.836839 C95.4136005,183.836839 100.469565,179.062185 100.469565,173.17235 C100.469565,167.282516 89.1767519,150 89.1767519,150 C89.1767519,150 77.8839387,167.282516 77.8839387,173.17235 C77.8839387,179.062185 82.9399034,183.836839 89.1767519,183.836839 Z" id="Drop-1" stroke="#4A4A4A" stroke-width="6" fill="#FFFFFF"></path>
            <path d="M129.176752,183.836839 C135.4136,183.836839 140.469565,179.062185 140.469565,173.17235 C140.469565,167.282516 129.176752,150 129.176752,150 C129.176752,150 117.883939,167.282516 117.883939,173.17235 C117.883939,179.062185 122.939903,183.836839 129.176752,183.836839 Z" id="Drop-1" stroke="#4A4A4A" stroke-width="6" fill="#FFFFFF"></path>
            <path d="M169.176752,183.836839 C175.4136,183.836839 180.469565,179.062185 180.469565,173.17235 C180.469565,167.282516 169.176752,150 169.176752,150 C169.176752,150 157.883939,167.282516 157.883939,173.17235 C157.883939,179.062185 162.939903,183.836839 169.176752,183.836839 Z" id="Drop-1" stroke="#4A4A4A" stroke-width="6" fill="#FFFFFF"></path>
        </g>
    </g>
</svg>