<?xml version="1.0" encoding="UTF-8" standalone="no"?>
<svg width="216px" height="195px" viewBox="0 0 216 195" version="1.1" xmlns="http://www.w3.org/2000/svg" xmlns:xlink="http://www.w3.org/1999/xlink">
    <!-- Generator: Sketch 3.8.3 (29802) - http://www.bohemiancoding.com/sketch -->
    <title>Group 4</title>
    <desc>Created with Sketch.</desc>
    <defs></defs>
    <g id="Page-1" stroke="none" stroke-width="1" fill="none" fill-rule="evenodd">
        <g id="Group-4" fill="#000000">
            <g id="Group-2">
                <path d="M135,13.0900417 C157.175016,13.0900417 175.236328,30.4498915 175.5,51.8746082 C175.394531,52.6673739 175.315219,53.4597305 175.289063,54.2778581 L174.946078,63.8908575 L184.332797,67.061102 C195.1965,70.7295862 202.5,80.6113405 202.5,91.6302922 C202.5,106.075562 190.39725,117.810376 175.5,117.810376 L40.5,117.810376 C25.6158281,117.810376 13.5,106.075153 13.5,91.6302922 C13.5,77.338421 25.3918125,65.6801026 40.078125,65.4502087 C40.7109375,65.5397937 41.3703281,65.6162886 42.0292969,65.6547406 L52.2863438,66.3067883 L55.6613438,56.9110018 C59.4582188,46.3522469 69.6359531,39.2701252 81,39.2701252 C82.3183594,39.2701252 83.7687656,39.4235242 85.7199375,39.756093 L95.1724688,41.4050292 L99.8789063,33.2875671 C107.103516,20.8368921 120.550781,13.0900417 135,13.0900417 L135,13.0900417 Z M88.1060625,26.8705832 C85.7988281,26.4742004 83.4388594,26.1800835 81,26.1800835 C63.3074062,26.1800835 48.4232344,37.2505772 42.9127031,52.5904699 C42.1086094,52.5393369 41.3306719,52.360167 40.5,52.360167 C18.140625,52.360167 0,69.9499106 0,91.6302922 C0,113.310674 18.140625,130.900417 40.5,130.900417 L167.363281,130.900417 L175.5,130.900417 C197.859375,130.900417 216,113.310674 216,91.6302922 C216,74.4749744 204.582797,60.0301133 188.762484,54.6865128 C188.789062,53.8941562 189,53.1529326 189,52.360167 C189,23.4446738 164.8215,0 135,0 C114.776156,0 97.3607344,10.9170948 88.1060625,26.8705832 Z" id="Shape"></path>
                <path d="M85.4608696,194.836839 C94.2782157,194.836839 101.426087,188.086671 101.426087,179.759916 C101.426087,171.433161 85.4608696,147 85.4608696,147 C85.4608696,147 69.4956522,171.433161 69.4956522,179.759916 C69.4956522,188.086671 76.6435235,194.836839 85.4608696,194.836839 Z" id="Drop-2" stroke-opacity="0" stroke="#979797"></path>
                <path d="M130.53913,194.836839 C139.356477,194.836839 146.504348,188.086671 146.504348,179.759916 C146.504348,171.433161 130.53913,147 130.53913,147 C130.53913,147 114.573913,171.433161 114.573913,179.759916 C114.573913,188.086671 121.721784,194.836839 130.53913,194.836839 Z" id="Drop-3" stroke-opacity="0" stroke="#979797"></path>
                <g id="Group" transform="translate(159.652174, 147.000000)" stroke-opacity="0" stroke="#979797">
                    <path d="M15.9652174,47.836839 C24.7825635,47.836839 31.9304348,41.0866706 31.9304348,32.7599159 C31.9304348,24.4331612 15.9652174,2.84217094e-14 15.9652174,2.84217094e-14 C15.9652174,2.84217094e-14 0,24.4331612 0,32.7599159 C0,41.0866706 7.1478713,47.836839 15.9652174,47.836839 Z" id="Drop-4"></path>
                </g>
                <path d="M38.5043478,194.836839 C47.3216939,194.836839 54.4695652,188.086671 54.4695652,179.759916 C54.4695652,171.433161 38.5043478,147 38.5043478,147 C38.5043478,147 22.5391304,171.433161 22.5391304,179.759916 C22.5391304,188.086671 29.6870017,194.836839 38.5043478,194.836839 Z" id="Drop-1" stroke-opacity="0" stroke="#979797"></path>
            </g>
            <text id="Quadrupal" font-family="ArialRoundedMTBold, Arial Rounded MT Bold" font-size="32" font-weight="normal">
                <tspan x="26" y="106">Quadrupal</tspan>
            </text>
        </g>
    </g>
</svg>