<?xml version="1.0" encoding="UTF-8" standalone="no"?>
<svg width="439px" height="176px" viewBox="0 0 439 176" version="1.1" xmlns="http://www.w3.org/2000/svg" xmlns:xlink="http://www.w3.org/1999/xlink">
    <!-- Generator: Sketch 3.8.3 (29802) - http://www.bohemiancoding.com/sketch -->
    <title>Group</title>
    <desc>Created with Sketch.</desc>
    <defs></defs>
    <g id="Page-1" stroke="none" stroke-width="1" fill="none" fill-rule="evenodd">
        <g id="Group" transform="translate(-4.000000, -13.000000)">
            <text id="Quadrupal" font-family="BanglaMN-Bold, Bangla MN" font-size="76" font-weight="bold" fill="#FFFFFF">
                <tspan x="0" y="80.836839">Quadrupal</tspan>
            </text>
            <path d="M263.291025,82.651649 C268.97491,82.651649 273.582609,78.185343 273.582609,72.6758754 C273.582609,70.2398098 271.570549,65.7202554 269.325734,61.4359463 C266.493618,56.0307533 263.291025,51 263.291025,51 C263.291025,51 252.999441,67.1664077 252.999441,72.6758754 C252.999441,78.185343 257.60714,82.651649 263.291025,82.651649 Z" id="Drop-4" stroke-opacity="0" stroke="#FFFFFF" stroke-width="6" fill="#183A62"></path>
            <path d="M263.291025,117.734572 C268.97491,117.734572 273.582609,113.268266 273.582609,107.758798 C273.582609,105.322733 271.570549,100.803178 269.325734,96.5188691 C266.493618,91.1136761 263.291025,86.0829228 263.291025,86.0829228 C263.291025,86.0829228 252.999441,102.249331 252.999441,107.758798 C252.999441,113.268266 257.60714,117.734572 263.291025,117.734572 Z" id="Drop-4" stroke-opacity="0" stroke="#FFFFFF" stroke-width="6" fill="#183A62"></path>
            <path d="M263.291025,152.817495 C268.97491,152.817495 273.582609,148.351189 273.582609,142.841721 C273.582609,140.405655 271.570549,135.886101 269.325734,131.601792 C266.493618,126.196599 263.291025,121.165846 263.291025,121.165846 C263.291025,121.165846 252.999441,137.332253 252.999441,142.841721 C252.999441,148.351189 257.60714,152.817495 263.291025,152.817495 Z" id="Drop-4" stroke-opacity="0" stroke="#FFFFFF" stroke-width="6" fill="#183A62"></path>
            <path d="M263.291025,188.900417 C268.97491,188.900417 273.582609,184.434111 273.582609,178.924644 C273.582609,176.488578 271.570549,171.969024 269.325734,167.684715 C266.493618,162.279522 263.291025,157.248768 263.291025,157.248768 C263.291025,157.248768 252.999441,173.415176 252.999441,178.924644 C252.999441,184.434111 257.60714,188.900417 263.291025,188.900417 Z" id="Drop-4" stroke-opacity="0" stroke="#FFFFFF" stroke-width="6" fill="#183A62"></path>
        </g>
    </g>
</svg>